<?xml version="1.0" standalone="no"?>
<!DOCTYPE svg PUBLIC "-//W3C//DTD SVG 20010904//EN"
 "http://www.w3.org/TR/2001/REC-SVG-20010904/DTD/svg10.dtd">
<svg version="1.0" xmlns="http://www.w3.org/2000/svg"
 width="1600.000000pt" height="1600.000000pt" viewBox="0 0 1600.000000 1600.000000"
 preserveAspectRatio="xMidYMid meet">

<g transform="translate(0.000000,1600.000000) scale(0.100000,-0.100000)"
fill="#000000" stroke="none">
<path d="M7145 14993 c-844 -52 -1610 -240 -2350 -578 -1861 -849 -3233 -2557
-3654 -4550 -91 -428 -129 -773 -138 -1230 -6 -326 3 -553 33 -825 136 -1253
630 -2431 1429 -3405 750 -915 1744 -1616 2851 -2010 145 -52 192 -60 270 -46
180 33 345 201 399 406 12 49 15 138 15 528 l0 470 -32 -7 c-384 -79 -764 -88
-1083 -25 -370 73 -705 249 -960 504 -160 159 -252 295 -341 502 -174 403
-393 708 -630 875 -152 107 -234 197 -234 259 0 88 195 140 396 105 369 -64
667 -270 899 -621 276 -419 656 -641 1184 -695 248 -25 560 7 746 77 l50 19
12 194 c18 304 50 471 114 611 18 38 30 71 28 73 -2 2 -76 18 -164 35 -1101
220 -1937 698 -2453 1402 -376 514 -565 1209 -524 1923 47 803 302 1447 784
1985 l85 94 -33 48 c-68 102 -145 348 -176 564 -19 132 -16 465 5 600 42 270
143 530 273 701 l21 27 150 -11 c365 -28 672 -114 991 -276 249 -127 460 -277
657 -468 l124 -119 123 39 c314 102 686 166 1113 193 235 14 758 6 975 -16
372 -37 713 -104 944 -184 l59 -21 101 98 c483 463 1061 717 1726 758 l105 6
48 -73 c174 -266 267 -615 267 -998 0 -290 -58 -596 -147 -778 l-35 -73 70
-79 c424 -481 669 -1078 743 -1816 18 -181 16 -611 -4 -775 -83 -661 -336
-1206 -771 -1658 -517 -537 -1267 -909 -2213 -1098 l-141 -28 35 -70 c41 -80
76 -212 94 -347 9 -67 14 -427 18 -1269 l7 -1175 21 -58 c95 -251 323 -405
525 -354 144 35 505 182 795 322 1282 620 2353 1684 2982 2960 359 728 567
1463 648 2290 22 229 25 894 5 1115 -105 1141 -457 2150 -1072 3070 -701 1049
-1698 1876 -2861 2373 -678 290 -1372 454 -2149 507 -131 9 -629 11 -755 3z"/>
</g>
</svg>
